<svg version="1.2" baseProfile="tiny-ps" xmlns="http://www.w3.org/2000/svg" width="736" height="390" style="background-color:#ffffff"><style>.shp0{fill:#000000}</style><g id="Layer"><g id="&lt;Group&gt;"><path id="&lt;Path&gt;" class="shp0" d="m374.1 232.75-29.63 56.85-16.17 31.01h53.36l26.83-51.68-26.28-51.73-8.11 15.55Z"/><path class="shp0" d="m367.47 69-11.5 22.49h22.8L367.47 69Zm-56.09 241.59c-11.19-2.65-11.08-12.14.35-28.47h28.56l23.97-45.89h-28.42l31.45-60.51 17.02 33.51 26.29 51.71 19.92 39.19c2.18 5.58.21 8.92-5.92 10.03v8.69h79.56v-9.18h-12l-54.45-100.92-26.09-51.92-2.73-5.42h-83.53L247 304.7c-.86 1.71-2.63 1.91-4.55 1.91h-10.61v12h79.54v-8.02Z"/><path class="shp0" d="M307.93 158.16c-1.94-3.33-2.52-6.3-1.74-8.91.61-2.02 2.56-3.32 4.67-3.32H417.3l-2.56 4.9 26.09 51.91 41.8-80.47c.37-.71.68-1.42 1-2.13 0-.01 0-.02.01-.03l-.03-.04c.36-.82.65-1.65.96-2.48 2.06-4.51 6.78-13.3 15.96-12v-8.62H263.34l33.07 61.19h11.52Z"/></g></g></svg>
